<?xml version="1.0" standalone="no"?>
<!DOCTYPE svg PUBLIC "-//W3C//DTD SVG 20010904//EN"
 "http://www.w3.org/TR/2001/REC-SVG-20010904/DTD/svg10.dtd">
<svg version="1.0" xmlns="http://www.w3.org/2000/svg"
 width="547.000000pt" height="547.000000pt" viewBox="0 0 547.000000 547.000000"
 preserveAspectRatio="xMidYMid meet">
<metadata>
Created by potrace 1.11, written by Peter Selinger 2001-2013
</metadata>
<g transform="translate(0.000000,547.000000) scale(0.100000,-0.100000)"
fill="#000000" stroke="none">
<path d="M2578 5465 c-2 -1 -41 -5 -88 -9 -83 -6 -120 -10 -190 -22 -19 -4
-48 -8 -65 -11 -191 -29 -478 -123 -703 -230 -121 -58 -378 -214 -441 -269 -2
-2 16 -12 40 -23 24 -10 74 -33 112 -50 157 -73 211 -97 377 -173 96 -44 236
-109 310 -143 74 -35 219 -102 323 -149 479 -220 567 -260 632 -291 39 -18
120 -55 180 -83 103 -46 138 -62 322 -148 39 -18 87 -47 106 -64 153 -134 58
-390 -145 -392 -25 0 -57 3 -70 7 -21 7 -258 114 -458 207 -47 22 -128 59
-180 83 -52 24 -135 62 -185 85 -49 23 -108 50 -130 60 -22 10 -215 98 -430
197 -214 99 -415 192 -445 205 -166 77 -337 156 -428 199 -57 27 -105 49 -107
49 -2 0 -42 18 -89 40 -47 22 -92 40 -100 40 -33 0 -394 -515 -375 -534 2 -3
94 -46 204 -96 110 -51 427 -197 705 -325 278 -128 528 -243 555 -255 28 -12
97 -45 154 -71 57 -27 105 -49 106 -49 2 0 50 -22 107 -49 56 -27 130 -61 163
-76 87 -39 474 -217 985 -452 245 -113 463 -213 485 -223 22 -10 81 -37 130
-60 50 -23 110 -51 135 -62 25 -12 218 -101 430 -198 212 -98 408 -188 435
-200 62 -28 223 -103 290 -134 28 -13 53 -21 56 -17 6 6 68 188 73 214 2 7 8
30 14 52 10 37 13 51 27 123 3 15 8 34 10 42 3 8 7 31 10 50 3 19 9 59 14 87
l8 53 -66 31 c-36 18 -118 55 -181 84 -168 76 -470 216 -580 268 -146 68 -174
100 -179 199 -7 157 142 284 289 246 19 -5 60 -21 90 -35 30 -14 132 -61 225
-103 94 -43 206 -95 250 -115 44 -21 100 -46 124 -56 l43 -19 -6 80 c-4 44 -9
88 -10 97 -2 10 -7 41 -10 68 -20 149 -94 439 -118 460 -7 6 -53 30 -103 52
-49 23 -133 61 -185 86 -52 24 -120 56 -150 69 -70 32 -401 185 -500 230 -73
34 -116 54 -250 116 -263 121 -457 210 -525 241 -44 21 -109 51 -144 67 -451
204 -587 272 -606 301 -46 67 -20 157 55 196 48 25 87 18 200 -36 52 -24 115
-54 140 -65 25 -11 118 -54 208 -96 90 -42 165 -76 167 -76 2 0 57 -25 122
-56 65 -31 132 -62 148 -69 33 -15 15 -7 630 -290 242 -111 463 -213 490 -225
28 -12 71 -33 98 -45 26 -13 47 -21 47 -17 0 11 -84 159 -136 239 -135 207
-334 433 -514 584 -36 29 -67 56 -70 59 -15 17 -198 144 -275 192 -122 76
-226 130 -342 178 -54 23 -107 45 -118 50 -120 56 -473 139 -700 165 -56 7
-421 15 -427 10z"/>
<path d="M122 3563 c-50 -159 -86 -313 -97 -419 -4 -32 -9 -62 -11 -66 -3 -5
5 -12 18 -17 13 -5 57 -25 98 -44 41 -19 203 -93 360 -165 418 -191 416 -190
450 -218 121 -102 95 -296 -50 -369 -87 -44 -142 -37 -310 43 -134 63 -571
262 -576 262 -5 0 3 -141 10 -177 2 -10 7 -40 10 -68 12 -87 55 -276 87 -378
l30 -99 57 -25 c31 -14 192 -87 357 -163 165 -76 329 -151 365 -168 36 -16
101 -46 145 -67 44 -20 98 -45 120 -55 64 -28 541 -248 654 -301 57 -27 105
-49 107 -49 2 0 60 -27 129 -60 69 -33 128 -60 130 -60 2 0 45 -20 97 -44 51
-24 118 -55 150 -69 97 -44 134 -122 94 -193 -52 -93 -112 -99 -261 -29 -55
26 -120 56 -145 67 -25 11 -130 60 -235 108 -104 48 -215 99 -245 112 -30 14
-89 41 -130 61 -41 19 -97 45 -125 57 -27 13 -81 37 -120 55 -38 18 -178 82
-310 143 -132 61 -289 133 -348 161 -60 28 -110 51 -112 51 -2 0 -47 20 -101
46 -53 25 -99 43 -101 40 -6 -6 71 -143 130 -231 326 -488 792 -858 1336
-1060 145 -54 344 -107 486 -130 55 -9 110 -18 122 -20 138 -23 543 -23 683 0
14 2 57 9 95 15 39 6 88 15 110 20 22 5 54 11 70 14 17 3 55 13 85 21 30 9 64
18 75 20 32 7 207 70 290 104 145 60 407 207 532 299 l64 47 -53 25 c-51 24
-159 74 -298 138 -36 16 -101 46 -145 67 -44 20 -98 45 -120 55 -39 17 -725
333 -893 411 -46 22 -85 39 -87 39 -3 0 -89 40 -303 141 -57 27 -105 49 -107
49 -4 0 -62 27 -275 127 -110 52 -144 80 -175 147 -40 83 -19 178 55 253 39
39 88 57 160 57 55 0 120 -26 390 -152 85 -40 550 -254 765 -352 168 -77 242
-111 373 -171 76 -36 190 -88 272 -126 131 -60 420 -193 475 -218 33 -15 110
-51 170 -80 141 -67 151 -70 179 -52 23 16 102 123 237 322 41 61 77 112 82
113 20 10 2 34 -40 53 -27 12 -90 41 -141 65 -52 24 -95 44 -97 44 -1 0 -49
22 -106 49 -57 27 -212 98 -344 159 -132 60 -274 125 -315 145 -41 19 -97 45
-125 57 -96 44 -390 179 -500 230 -33 16 -121 56 -195 90 -74 34 -162 74 -195
90 -33 15 -85 39 -115 53 -30 13 -86 39 -125 57 -243 111 -422 194 -500 230
-49 23 -139 65 -200 92 -123 56 -203 93 -302 139 -38 17 -149 69 -248 114 -99
45 -209 96 -245 113 -92 42 -516 237 -838 385 -150 69 -281 129 -291 132 -16
5 -23 -9 -49 -92z"/>
</g>
</svg>
